<?xml version="1.0" encoding="UTF-8"?>
<svg id="_Слой_1" data-name="Слой 1" xmlns="http://www.w3.org/2000/svg" viewBox="0 0 128 32">
  <defs>
    <style>
      .cls-1 {
        fill: none;
        opacity: .95;
        stroke: #000;
        stroke-linecap: round;
        stroke-miterlimit: 10;
        stroke-width: 3px;
      }

      .cls-2 {
        fill: #1d1d1b;
        stroke-width: 0px;
      }
    </style>
  </defs>
  <g>
    <line class="cls-1" x1="16.8" y1="6.55" x2="26.33" y2="12.05"/>
    <line class="cls-1" x1="7.27" y1="25.05" x2="7.27" y2="12.05"/>
    <line class="cls-1" x1="7.27" y1="25.05" x2="13.34" y2="25.05"/>
    <line class="cls-1" x1="7.26" y1="12.05" x2="16.78" y2="6.55"/>
    <path class="cls-1" d="m13.34,25.05c0-7.18,5.82-13,13-13"/>
    <path class="cls-1" d="m19.6,25.05c0-3.72,3.02-6.74,6.74-6.74"/>
    <line class="cls-1" x1="26.34" y1="25.05" x2="26.34" y2="25.05"/>
  </g>
  <g>
    <path class="cls-2" d="m37.24,19.27c.33,0,.56-.03.7-.1.14-.06.2-.19.2-.37,0-.14-.09-.27-.26-.38-.18-.11-.44-.23-.8-.37-.28-.1-.53-.21-.76-.32-.23-.11-.42-.25-.58-.4-.16-.16-.28-.34-.37-.56-.09-.22-.13-.48-.13-.78,0-.59.22-1.06.66-1.4.44-.34,1.04-.52,1.81-.52.38,0,.75.03,1.1.1.35.07.63.14.84.22l-.31,1.39c-.21-.07-.43-.14-.68-.19-.24-.06-.52-.08-.82-.08-.56,0-.84.16-.84.47,0,.07.01.14.04.19.02.06.07.11.14.16.07.05.17.11.29.17s.28.13.47.2c.39.15.72.29.97.43.26.14.46.29.61.46.15.16.25.34.31.54.06.2.09.43.09.69,0,.62-.23,1.09-.7,1.41-.47.32-1.13.48-1.99.48-.56,0-1.03-.05-1.4-.14-.37-.1-.63-.18-.77-.24l.3-1.45c.3.12.62.21.94.28.32.07.64.1.95.1Z"/>
    <path class="cls-2" d="m44.71,17.2c0-.58-.07-.98-.22-1.22-.15-.24-.4-.36-.76-.36-.11,0-.23,0-.35.02-.12.01-.24.03-.35.04v4.87h-1.79v-6.1c.15-.04.33-.08.53-.13.2-.04.42-.08.65-.12.23-.04.46-.06.7-.08s.48-.03.71-.03c.46,0,.83.06,1.11.17.28.12.52.25.7.41.26-.18.55-.33.88-.43s.64-.16.92-.16c.5,0,.92.07,1.24.21.32.14.58.34.77.59.19.26.32.56.4.91.07.35.11.74.11,1.18v3.56h-1.79v-3.35c0-.58-.07-.98-.22-1.22-.15-.24-.4-.36-.76-.36-.1,0-.23.02-.4.07-.17.05-.31.11-.43.18.06.18.09.38.11.58.02.2.02.42.02.65v3.44h-1.79v-3.35Z"/>
    <path class="cls-2" d="m53.86,14.07c.53,0,.97.06,1.32.18.35.12.63.29.85.52.21.22.36.5.45.82.09.32.13.68.13,1.07v3.72c-.26.06-.61.12-1.07.2-.46.08-1.01.11-1.66.11-.41,0-.78-.04-1.11-.11-.33-.07-.62-.19-.86-.35-.24-.16-.42-.38-.55-.64-.13-.26-.19-.59-.19-.97s.07-.68.22-.94.35-.46.59-.61c.25-.15.53-.26.85-.33.32-.07.65-.1,1-.1.23,0,.44,0,.62.03.18.02.33.05.44.08v-.17c0-.3-.09-.55-.28-.73-.18-.18-.5-.28-.96-.28-.3,0-.6.02-.9.07s-.55.11-.77.19l-.23-1.44c.1-.03.23-.07.39-.1.16-.04.33-.07.51-.1.18-.03.38-.05.58-.07.2-.02.41-.03.62-.03Zm.14,5.23c.18,0,.34,0,.5-.01s.29-.02.38-.04v-1.36c-.07-.02-.18-.03-.32-.05-.14-.02-.28-.02-.4-.02-.17,0-.33,0-.47.03-.15.02-.28.06-.39.11s-.2.13-.26.23c-.06.1-.1.22-.1.36,0,.28.09.47.28.58.19.11.45.16.77.16Z"/>
    <path class="cls-2" d="m62.03,15.83c-.16-.04-.35-.08-.56-.13s-.45-.07-.7-.07c-.11,0-.25.01-.4.03-.16.02-.27.04-.35.07v4.82h-1.79v-5.98c.32-.11.7-.22,1.13-.32.44-.1.92-.15,1.46-.15.1,0,.21,0,.35.02.14.01.27.03.41.05.14.02.27.04.41.07.14.03.25.06.35.1l-.3,1.48Z"/>
    <path class="cls-2" d="m63.23,12.67l1.79-.29v1.86h2.15v1.49h-2.15v2.22c0,.38.07.68.2.9.13.22.4.34.8.34.19,0,.39-.02.59-.05s.39-.09.56-.15l.25,1.39c-.22.09-.46.16-.72.23-.26.06-.59.1-.97.1-.49,0-.89-.07-1.21-.2-.32-.13-.58-.32-.77-.55-.19-.24-.33-.52-.4-.86-.08-.34-.11-.71-.11-1.12v-5.3Z"/>
    <path class="cls-2" d="m68.62,20.55v-9.02l1.79-.29v3.02c.12-.04.27-.08.46-.11.19-.04.37-.05.55-.05.51,0,.94.07,1.28.21.34.14.61.34.82.59.2.26.35.56.43.91.08.35.13.74.13,1.18v3.56h-1.79v-3.35c0-.58-.07-.98-.22-1.22-.15-.24-.42-.36-.82-.36-.16,0-.31.01-.45.04-.14.03-.27.06-.38.09v4.8h-1.79Z"/>
    <path class="cls-2" d="m81.59,17.39c0,.5-.07.95-.22,1.36-.14.41-.35.76-.62,1.06-.27.29-.6.52-.98.68s-.81.24-1.28.24-.89-.08-1.27-.24-.71-.39-.98-.68c-.27-.29-.48-.64-.64-1.06-.15-.41-.23-.87-.23-1.36s.08-.95.23-1.36c.16-.41.37-.76.65-1.04.28-.29.6-.51.98-.67.38-.16.79-.24,1.24-.24s.87.08,1.25.24c.38.16.71.38.98.67.27.29.48.64.64,1.04.15.41.23.86.23,1.36Zm-1.82,0c0-.55-.11-.99-.33-1.3-.22-.32-.53-.47-.94-.47s-.72.16-.95.47c-.22.32-.34.75-.34,1.3s.11.99.34,1.31c.22.32.54.49.95.49s.72-.16.94-.49c.22-.32.33-.76.33-1.31Z"/>
    <path class="cls-2" d="m86.44,17.2c0-.58-.07-.98-.22-1.22-.15-.24-.4-.36-.76-.36-.11,0-.23,0-.35.02-.12.01-.24.03-.35.04v4.87h-1.79v-6.1c.15-.04.33-.08.53-.13.2-.04.42-.08.65-.12.23-.04.46-.06.7-.08.24-.02.48-.03.71-.03.46,0,.83.06,1.11.17.28.12.52.25.7.41.26-.18.55-.33.88-.43s.64-.16.92-.16c.5,0,.92.07,1.24.21.32.14.58.34.77.59.19.26.32.56.4.91.07.35.11.74.11,1.18v3.56h-1.79v-3.35c0-.58-.07-.98-.22-1.22-.15-.24-.4-.36-.76-.36-.1,0-.23.02-.4.07-.17.05-.31.11-.43.18.06.18.09.38.11.58.02.2.02.42.02.65v3.44h-1.79v-3.35Z"/>
    <path class="cls-2" d="m93.01,17.44c0-.56.09-1.05.26-1.47s.4-.77.68-1.05c.28-.28.6-.49.97-.64.36-.14.74-.22,1.12-.22.9,0,1.6.27,2.12.82.52.55.78,1.35.78,2.42,0,.1,0,.22-.01.34,0,.12-.02.23-.02.33h-4.06c.04.37.21.66.52.88.3.22.71.32,1.22.32.33,0,.65-.03.97-.09.32-.06.57-.13.77-.22l.24,1.45c-.1.05-.22.1-.38.14s-.34.09-.53.13-.41.07-.63.09c-.22.02-.45.04-.67.04-.57,0-1.06-.08-1.48-.25-.42-.17-.77-.4-1.04-.69-.28-.29-.48-.64-.61-1.04-.13-.4-.2-.83-.2-1.3Zm4.2-.68c0-.15-.03-.3-.08-.44s-.11-.27-.2-.38c-.09-.11-.21-.2-.35-.28-.14-.07-.31-.11-.52-.11s-.37.03-.52.1c-.14.07-.26.16-.36.27-.1.11-.17.24-.22.39-.05.15-.09.3-.11.45h2.36Z"/>
    <path class="cls-2" d="m103.2,20.55v-9.02l1.79-.29v3.02c.12-.04.27-.08.46-.11.19-.04.37-.05.55-.05.51,0,.94.07,1.28.21.34.14.61.34.82.59.2.26.35.56.43.91.08.35.13.74.13,1.18v3.56h-1.79v-3.35c0-.58-.07-.98-.22-1.22-.15-.24-.42-.36-.82-.36-.16,0-.31.01-.45.04-.14.03-.27.06-.38.09v4.8h-1.79Z"/>
    <path class="cls-2" d="m115.65,20.34c-.3.09-.7.17-1.18.25-.48.08-.98.11-1.51.11s-.98-.07-1.34-.22c-.36-.14-.64-.35-.85-.61-.21-.26-.36-.57-.44-.93-.09-.36-.13-.76-.13-1.19v-3.52h1.79v3.3c0,.58.08.99.23,1.25s.44.38.85.38c.13,0,.26,0,.41-.02.14-.01.27-.03.38-.04v-4.87h1.79v6.1Z"/>
    <path class="cls-2" d="m123.2,17.4c0,.5-.07.96-.22,1.37-.15.41-.36.76-.64,1.04s-.62.51-1.03.67c-.41.16-.87.23-1.39.23-.22,0-.44-.01-.68-.03-.24-.02-.47-.05-.7-.08-.23-.03-.45-.07-.65-.11-.21-.04-.39-.09-.55-.14v-8.82l1.79-.29v3.14c.2-.09.41-.16.62-.2s.45-.07.7-.07c.45,0,.84.08,1.19.23.34.16.63.38.86.67s.41.63.53,1.04.18.85.18,1.35Zm-1.82-.05c0-1.15-.42-1.73-1.27-1.73-.18,0-.37.02-.55.07-.18.05-.33.11-.44.18v3.25c.09.02.2.03.34.04.14.01.28.02.44.02.49,0,.86-.17,1.1-.5s.37-.78.37-1.33Z"/>
  </g>
</svg>